<svg width="479" height="399" viewBox="0 0 479 399" fill="none" xmlns="http://www.w3.org/2000/svg">
<path fill-rule="evenodd" clip-rule="evenodd" d="M243.431 84.7703C282.934 59.4661 324.327 55.3909 358.47 68.4498C392.612 81.5087 431.411 107.189 461.474 160.089C491.536 212.989 479.187 281.231 449.622 323.752C420.057 366.273 377.147 392.535 326.592 392.535C276.037 392.535 264.031 365.628 217.387 365.628C170.744 365.628 163.425 409.013 101.02 395.892C38.6142 382.771 42.2442 320.052 63.3261 292.979C84.408 265.905 114.151 258.282 144.257 238.782C174.363 219.281 181.515 210.607 190.25 198.972C198.985 187.338 203.928 110.074 243.431 84.7703Z" fill="#F0E7E0"/>
<path fill-rule="evenodd" clip-rule="evenodd" d="M464.741 296.302L464.437 297.011C460.235 306.666 455.24 315.673 449.622 323.752C420.057 366.273 377.147 392.535 326.592 392.535C302.831 392.535 287.586 386.591 273.257 380.291L271.433 379.485L266.891 377.47L265.074 376.671C251.728 370.837 237.911 365.628 217.387 365.628C198.73 365.628 186.364 372.57 174.249 380.06L172.432 381.187L170.615 382.317C153.639 392.867 135.967 403.24 101.02 395.892C68.1045 388.971 53.56 368.253 50.2573 346.245C67.9983 333.365 93.89 325.038 127.935 321.264C141.482 319.762 152.03 318.772 160.501 318.078L163.406 317.845C165.287 317.697 167.059 317.564 168.734 317.443L171.175 317.271L173.479 317.115L176.699 316.906L184.94 316.395L186.539 316.291L188.074 316.187C199.619 315.377 206.252 314.297 226.209 308.644L228.889 307.881C229.349 307.749 229.815 307.615 230.288 307.479L233.212 306.634L236.309 305.731L239.589 304.77L243.06 303.746C292.968 289.005 390.582 279.26 464.741 296.302Z" fill="#F9EFE8"/>
<path d="M211.648 86.0131L117.411 162.741C122.22 165.406 127.898 165.733 132.956 163.636L249.06 115.49L211.648 86.0131Z" fill="#F6BB74"/>
<path d="M211.648 86.0129L134.681 148.679L216.51 89.8434L211.648 86.0129Z" fill="#FFF4E8"/>
<path d="M193.952 107.026C202.997 111.438 208.47 115.308 210.372 118.633C213.224 123.621 212.92 127.753 210.372 134.021C207.824 140.289 198.272 140.175 192.253 137.483C186.233 134.792 170.972 130.092 168.592 120.762C166.213 111.433 169.025 104.976 174.677 102.209C178.445 100.365 184.87 101.97 193.952 107.026Z" fill="#FDCE97"/>
<path d="M187.106 103.656L187.032 103.625C181.522 101.346 177.404 100.874 174.677 102.209C169.025 104.976 166.212 111.433 168.592 120.762C169.758 125.334 174.017 128.794 178.766 131.45L179.35 131.772C179.545 131.878 179.741 131.982 179.938 132.085L180.528 132.391L181.12 132.689L181.713 132.979L182.305 133.262L182.896 133.538L183.484 133.807L184.069 134.068L184.937 134.448L185.791 134.812L186.627 135.162L187.972 135.714L190.192 136.613L191.074 136.977L191.487 137.151L192.069 137.402L192.253 137.483C192.375 137.538 192.5 137.592 192.625 137.645L193.007 137.8C193.327 137.926 193.656 138.045 193.992 138.157L194.398 138.287C194.466 138.308 194.535 138.329 194.603 138.349L195.018 138.468C195.087 138.487 195.157 138.506 195.227 138.524L195.649 138.631C196.002 138.717 196.36 138.795 196.721 138.863L197.156 138.941L197.593 139.01C202.847 139.786 208.499 138.626 210.371 134.021C211.484 131.283 212.169 128.953 212.35 126.781C192.225 137.494 179.073 120.931 181.966 111.755C183.073 108.245 184.786 105.545 187.106 103.656Z" fill="#FFDAAF"/>
<path d="M178.793 127.478C173.656 127.478 169.492 121.938 169.492 115.104C169.492 108.271 173.656 102.731 178.793 102.731C183.93 102.731 188.094 108.271 188.094 115.104C188.094 121.938 183.93 127.478 178.793 127.478Z" fill="white"/>
<path d="M178.842 125.524C174.562 125.524 171.092 120.859 171.092 115.104C171.092 109.35 174.562 104.685 178.842 104.685C183.123 104.685 186.593 109.35 186.593 115.104C186.593 120.859 183.123 125.524 178.842 125.524Z" fill="#DD9B4A"/>
<path fill-rule="evenodd" clip-rule="evenodd" d="M230.669 124.526L221.899 119.433C220.265 118.483 218.21 119.017 217.185 120.656C216.27 122.121 216.658 124.089 218.054 125.05C218.131 125.103 218.209 125.152 218.29 125.198L226.748 129.933C228.382 130.847 230.407 130.384 231.531 128.839C232.459 127.561 232.226 125.735 231.009 124.76C230.902 124.673 230.788 124.595 230.669 124.526Z" fill="#FFF4E8"/>
<path fill-rule="evenodd" clip-rule="evenodd" d="M189.747 142.761L180.976 137.667C179.342 136.718 177.287 137.251 176.263 138.89C175.347 140.355 175.736 142.323 177.131 143.284C177.208 143.337 177.287 143.386 177.368 143.432L185.826 148.167C187.46 149.081 189.484 148.618 190.608 147.073C191.537 145.795 191.304 143.969 190.087 142.994C189.979 142.908 189.865 142.83 189.747 142.761Z" fill="#FFF4E8"/>
<path fill-rule="evenodd" clip-rule="evenodd" d="M158.744 153.832L149.974 148.738C148.34 147.788 146.285 148.322 145.26 149.961C144.345 151.426 144.733 153.394 146.129 154.355C146.205 154.408 146.284 154.457 146.365 154.503L154.823 159.238C156.457 160.152 158.482 159.689 159.606 158.144C160.534 156.866 160.301 155.04 159.084 154.065C158.977 153.978 158.863 153.9 158.744 153.832Z" fill="#FFF4E8"/>
<path d="M330.609 98.4721L350.638 28.7214L361.09 52.8616V117.108L330.609 98.4721Z" fill="#F6BB74"/>
<path d="M363.472 109.854L409.922 93.0354C417.391 90.3312 425.404 89.7275 433.164 91.2845L336.164 137.244C335.411 137.601 334.665 137.973 333.926 138.361L317.713 146.877L310.258 145.709L330.609 125.878L363.472 109.854Z" fill="#F6BB74"/>
<path d="M418.669 90.8602C415.902 91.2492 413.164 91.9078 410.494 92.8332L409.922 93.0356L363.472 109.854L330.609 125.878L311.564 144.436L328.951 132.835L352.391 119.969L418.669 90.8602Z" fill="#FFF4E8"/>
<path d="M188.792 29.4144C264.15 63.8682 313.711 86.1631 337.475 96.2991C373.191 111.533 382.799 118.048 382.799 125.729C382.799 133.41 370.271 134.822 352.586 135.938C334.902 137.053 314.071 135.743 279.821 128.518C245.57 121.292 221.862 109.52 176.842 88.0954C131.823 66.6707 116.586 52.2812 123.176 37.0862C129.765 21.8912 152.635 21.9987 161.433 21.9987C167.231 21.9987 176.063 24.3475 187.929 29.0452L187.929 29.0453C188.22 29.1603 188.508 29.283 188.792 29.4131L188.792 29.4144Z" fill="#FFF4E8"/>
<path d="M161.434 21.9987C167.235 21.9987 176.075 24.3506 187.953 29.0545L187.953 29.0555C188.241 29.1697 188.527 29.2913 188.809 29.4204C200.886 34.9397 209.701 38.9649 215.256 41.4972" stroke="#EAEAEA" stroke-width="0.808752"/>
<path d="M304.35 87.2844L300.724 85.6282V90.7432L304.35 92.2954V87.2844Z" fill="#DD9B4A"/>
<path fill-rule="evenodd" clip-rule="evenodd" d="M159.917 22.1613L160.312 21.9991L159.119 22.0041L158.156 22.014L157.139 22.0315L156.433 22.0485L155.707 22.0706L154.961 22.0984L154.197 22.1326L153.416 22.1737L152.62 22.2226L151.809 22.2798C151.673 22.29 151.537 22.3007 151.399 22.3117L150.57 22.3826C150.291 22.4078 150.011 22.4347 149.729 22.4634L148.879 22.5549C139.049 23.6702 127.541 27.021 123.176 37.0862C116.586 52.2812 131.823 66.6707 176.842 88.0954L192.184 95.4002L196.945 97.6589L200.414 99.2972L202.68 100.363L206.014 101.924L208.195 102.939L210.346 103.934L212.466 104.909L214.558 105.865L216.623 106.802C216.966 106.956 217.307 107.11 217.647 107.263L219.675 108.171L221.68 109.061C222.013 109.208 222.344 109.353 222.675 109.499L224.649 110.361C243.637 118.607 259.956 124.327 279.821 128.518L280.844 128.733L282.867 129.152C283.202 129.221 283.535 129.289 283.867 129.357L285.843 129.755L287.789 130.14L289.704 130.512L291.589 130.87C292.213 130.987 292.831 131.102 293.445 131.214L295.273 131.546C295.575 131.6 295.876 131.654 296.176 131.707L297.961 132.02C298.256 132.071 298.55 132.121 298.843 132.171L300.587 132.465L302.304 132.746C302.588 132.792 302.871 132.838 303.153 132.882L304.831 133.146C305.109 133.188 305.385 133.231 305.66 133.273L307.3 133.518C307.572 133.558 307.842 133.597 308.111 133.636L309.714 133.864L311.293 134.08C312.598 134.256 313.879 134.42 315.137 134.572L316.636 134.75C317.627 134.865 318.604 134.973 319.568 135.074L321.002 135.22L322.416 135.356L323.81 135.482C324.041 135.502 324.271 135.522 324.5 135.541L325.865 135.652C326.091 135.67 326.316 135.687 326.54 135.704L327.878 135.801C328.099 135.817 328.32 135.832 328.54 135.846L329.851 135.929C330.285 135.955 330.716 135.98 331.144 136.003L332.421 136.068L333.682 136.124L334.927 136.172C335.339 136.186 335.749 136.2 336.157 136.211L337.372 136.242C338.781 136.274 340.161 136.288 341.516 136.288L342.671 136.284C342.862 136.283 343.053 136.281 343.244 136.279L344.381 136.264C344.947 136.255 345.509 136.243 346.066 136.228L347.176 136.196L348.276 136.157L349.367 136.111L350.448 136.06C350.628 136.05 350.807 136.041 350.986 136.031L352.055 135.97L353.641 135.87L355.712 135.732L357.23 135.625L358.717 135.513L360.171 135.395L361.122 135.313L362.057 135.229L362.977 135.14L363.88 135.048L364.767 134.952L365.638 134.852C365.781 134.834 365.924 134.817 366.066 134.8L366.911 134.692L367.738 134.58C367.874 134.561 368.009 134.541 368.144 134.522L368.944 134.401C377.505 133.066 382.799 130.722 382.799 125.729C382.799 123.279 381.822 120.948 379.332 118.416L378.991 118.077C378.233 117.339 377.347 116.584 376.319 115.803L375.835 115.441C375.423 115.138 374.989 114.83 374.534 114.518L373.978 114.142C373.694 113.953 373.402 113.762 373.103 113.569C382.23 132.942 315.228 125.85 284.386 111.324C283.347 110.834 282.3 110.343 281.246 109.849L278.063 108.364C276.996 107.867 275.922 107.368 274.843 106.869L271.589 105.367L268.307 103.861C267.758 103.609 267.208 103.358 266.657 103.106L263.342 101.596C262.787 101.344 262.233 101.092 261.677 100.84L258.338 99.3305L253.117 96.9851L248.373 94.8692L244.424 93.1195L241.275 91.731L238.137 90.3543L234.239 88.6525L228.837 86.3117L224.274 84.3501L220.528 82.7514L216.113 80.8811L212.509 79.3664L208.982 77.8951L206.221 76.7516L202.188 75.096L199.578 74.0346L196.411 72.7584L193.959 71.7799L191.583 70.841L189.853 70.1639L188.725 69.7257C186.997 69.056 185.228 68.3848 183.435 67.7106L176.636 65.1657L174.466 64.3497L172.578 63.6338L170.698 62.9136L169.451 62.4309L168.212 61.9461C168.006 61.8651 167.8 61.784 167.595 61.7029L166.369 61.2146C166.165 61.133 165.962 61.0513 165.759 60.9696L164.549 60.4776C164.348 60.3954 164.148 60.3131 163.948 60.2307L162.756 59.7348L161.579 59.2361L160.417 58.7346C145.802 52.3637 135.233 45.2772 140.638 36.4808C144.108 30.8348 150.534 26.0617 159.917 22.1613Z" fill="#FADDBC"/>
<path d="M288.725 94.4812L237.715 68.8942L421.148 4.29204C429.983 1.18071 439.371 0.199013 448.616 1.41985L451.182 1.75858L288.725 94.4812Z" fill="#F6BB74"/>
<path fill-rule="evenodd" clip-rule="evenodd" d="M397.304 32.5096L299.897 68.4213L378.997 42.1168L297.171 74.068L299.897 49.5829L249.06 74.5843L288.725 94.4814L397.304 32.5096Z" fill="#F4A950"/>
<path fill-rule="evenodd" clip-rule="evenodd" d="M396.221 37.2628L387.45 32.1688C385.816 31.2197 383.762 31.7531 382.737 33.3924C381.821 34.8577 382.21 36.8251 383.605 37.7867C383.682 37.8395 383.761 37.8886 383.842 37.9339L392.3 42.6688C393.934 43.5836 395.959 43.1205 397.082 41.575C398.011 40.2976 397.778 38.4714 396.561 37.4962C396.453 37.4097 396.339 37.3317 396.221 37.2628Z" fill="#FFF4E8"/>
<path fill-rule="evenodd" clip-rule="evenodd" d="M365.218 53.5435L356.448 48.4496C354.814 47.5005 352.759 48.0339 351.735 49.6732C350.819 51.1384 351.208 53.1058 352.603 54.0674C352.68 54.1202 352.758 54.1694 352.839 54.2146L361.297 58.9496C362.931 59.8644 364.956 59.4013 366.08 57.8558C367.009 56.5783 366.775 54.7521 365.559 53.7769C365.451 53.6905 365.337 53.6125 365.218 53.5435Z" fill="#FFF4E8"/>
<path fill-rule="evenodd" clip-rule="evenodd" d="M338.557 68.5214L329.786 63.4275C328.152 62.4784 326.097 63.0118 325.073 64.6511C324.157 66.1163 324.546 68.0837 325.941 69.0454C326.018 69.0982 326.097 69.1473 326.178 69.1925L334.636 73.9275C336.27 74.8423 338.294 74.3792 339.418 72.8337C340.347 71.5562 340.114 69.73 338.897 68.7548C338.789 68.6684 338.675 68.5904 338.557 68.5214Z" fill="#FFF4E8"/>
<path d="M436.086 1.104C431.241 1.49792 426.442 2.48996 421.792 4.06956L421.158 4.28861L237.715 68.8943L252.238 76.1786L436.086 1.104Z" fill="#FFF4E8"/>
<path d="M301.341 49.7587C310.386 54.1715 315.859 58.0406 317.761 61.366C320.614 66.3541 320.309 70.486 317.761 76.7539C315.213 83.0218 305.662 82.9078 299.642 80.2165C293.623 77.5253 278.362 72.8247 275.982 63.4952C273.602 54.1658 276.415 47.7092 282.067 44.9423C285.835 43.0977 292.26 44.7032 301.341 49.7587Z" fill="#FDCE97"/>
<path d="M294.496 46.3892L294.422 46.3582C288.912 44.0794 284.793 43.6074 282.067 44.9423C276.414 47.7092 273.602 54.1658 275.982 63.4952C277.148 68.0667 281.407 71.5267 286.156 74.1836L286.739 74.5049C286.935 74.6107 287.131 74.7151 287.327 74.8183L287.917 75.124L288.509 75.422L289.102 75.7124L289.695 75.9955L290.285 76.2713L290.874 76.54L291.459 76.8016L292.327 77.1812L293.181 77.5456L294.017 77.8954L295.362 78.4469L297.581 79.3463L298.463 79.7098L298.877 79.8838L299.459 80.1352L299.642 80.2165C299.765 80.2715 299.889 80.3253 300.015 80.3781L300.396 80.5329C300.717 80.6592 301.046 80.7783 301.382 80.8898L301.788 81.02C301.856 81.0411 301.924 81.0618 301.993 81.0822L302.407 81.201C302.477 81.2202 302.547 81.239 302.616 81.2575L303.038 81.3646C303.392 81.4504 303.75 81.5278 304.111 81.5963L304.545 81.6742L304.982 81.7433C310.237 82.5191 315.889 81.3589 317.761 76.7539C318.874 74.0162 319.559 71.686 319.74 69.514C299.615 80.2277 286.463 63.6645 289.356 54.4882C290.462 50.9781 292.175 48.2784 294.496 46.3892Z" fill="#FFDAAF"/>
<path d="M286.182 70.2108C281.046 70.2108 276.882 64.6712 276.882 57.8377C276.882 51.0041 281.046 45.4645 286.182 45.4645C291.319 45.4645 295.483 51.0041 295.483 57.8377C295.483 64.6712 291.319 70.2108 286.182 70.2108Z" fill="white"/>
<path d="M286.232 68.2571C281.951 68.2571 278.481 63.5922 278.481 57.8376C278.481 52.0831 281.951 47.4181 286.232 47.4181C290.512 47.4181 293.982 52.0831 293.982 57.8376C293.982 63.5922 290.512 68.2571 286.232 68.2571Z" fill="#DD9B4A"/>
<path d="M130.7 29.9572L143.307 28.2913V23.5735C140.216 24.5599 137.965 25.4105 136.553 26.1255C135.141 26.8404 133.19 28.1177 130.7 29.9572Z" fill="#DD9B4A"/>
<path d="M146.446 23.3501V27.9035H151.558V23.5735L146.446 23.3501Z" fill="#DD9B4A"/>
<path d="M154.621 24.0837V27.5045L160.882 27.2686C159.513 26.2671 158.469 25.5839 157.751 25.2188C157.034 24.8538 155.99 24.4755 154.621 24.0837Z" fill="#DD9B4A"/>
<path d="M181.582 31.2795L177.956 29.6233V34.7383L181.582 36.2905V31.2795Z" fill="#DD9B4A"/>
<path d="M187.783 33.8844L184.156 32.2281V37.3432L187.783 38.8954V33.8844Z" fill="#DD9B4A"/>
<path d="M194.603 37.1405L190.976 35.4843V40.5993L194.603 42.1515V37.1405Z" fill="#DD9B4A"/>
<path d="M200.803 39.7452L197.176 38.089V43.204L200.803 44.7562V39.7452Z" fill="#DD9B4A"/>
<path d="M207.624 43.0014L203.997 41.3452V46.4603L207.624 48.0125V43.0014Z" fill="#DD9B4A"/>
<path d="M213.824 45.6062L210.198 43.95V49.065L213.824 50.6172V45.6062Z" fill="#DD9B4A"/>
<path d="M220.025 48.8625L216.398 47.2063V52.3213L220.025 53.8735V48.8625Z" fill="#DD9B4A"/>
<path d="M226.225 51.4674L222.599 49.8112V54.9262L226.225 56.4784V51.4674Z" fill="#DD9B4A"/>
<path d="M233.045 54.7235L229.419 53.0673V58.1823L233.045 59.7345V54.7235Z" fill="#DD9B4A"/>
<path d="M239.866 57.3282L236.24 55.672V60.7871L239.866 62.3393V57.3282Z" fill="#DD9B4A"/>
<path d="M246.687 60.5843L243.06 58.9281V64.0431L246.687 65.5953V60.5843Z" fill="#DD9B4A"/>
<path d="M310.551 89.8892L306.924 88.233V93.3481L310.551 94.9003V89.8892Z" fill="#DD9B4A"/>
<path d="M316.751 93.1456L313.124 91.4894V96.6044L316.751 98.1566V93.1456Z" fill="#DD9B4A"/>
<path d="M322.952 95.7503L319.325 94.0941V99.2092L322.952 100.761V95.7503Z" fill="#DD9B4A"/>
<path d="M329.152 98.3552L325.526 96.699V101.814L329.152 103.366V98.3552Z" fill="#DD9B4A"/>
<path d="M335.353 100.96L331.726 99.3038V104.419L335.353 105.971V100.96Z" fill="#DD9B4A"/>
<path d="M249.06 61.8097V66.3261L252.255 65.2924V63.4954L249.06 61.8097Z" fill="#DD9B4A"/>
<path fill-rule="evenodd" clip-rule="evenodd" d="M222.864 317.01L224.299 371.219C226.344 372.515 228.639 372.515 231.182 371.219L238.917 319.475L222.864 317.01Z" fill="#21998C"/>
<path fill-rule="evenodd" clip-rule="evenodd" d="M222.864 317.01L232.183 318.44L227.811 369.56L231.429 369.56L231.181 371.219C228.709 372.479 226.472 372.514 224.47 371.324L224.299 371.219L222.864 317.01Z" fill="#148276"/>
<path fill-rule="evenodd" clip-rule="evenodd" d="M307.772 325.177L316.171 378.533C318.392 379.502 320.698 379.151 323.086 377.481L324.218 325.159L307.772 325.177Z" fill="#21998C"/>
<path fill-rule="evenodd" clip-rule="evenodd" d="M307.772 325.133L317.377 325.122L319.556 376.354L323.214 375.8L323.177 377.479C320.841 379.104 318.584 379.481 316.407 378.61L316.221 378.532L307.772 325.133Z" fill="#148276"/>
<path fill-rule="evenodd" clip-rule="evenodd" d="M352.094 296.785L365.09 343.285C367.176 343.888 369.201 343.307 371.166 341.542L366.798 294.851L352.094 296.785Z" fill="#21998C"/>
<path fill-rule="evenodd" clip-rule="evenodd" d="M352.094 296.723L360.679 295.598L367.921 340.957L371.133 340.039L371.274 341.538C369.354 343.256 367.375 343.854 365.339 343.331L365.164 343.284L352.094 296.723Z" fill="#148276"/>
<path fill-rule="evenodd" clip-rule="evenodd" d="M279.108 286.723L283.512 335.131C285.431 336.15 287.5 335.992 289.719 334.657L293.729 287.824L279.108 286.723Z" fill="#21998C"/>
<path fill-rule="evenodd" clip-rule="evenodd" d="M279.108 286.702L287.635 287.341L286.619 333.403L289.897 333.154L289.768 334.657C287.601 335.955 285.576 336.14 283.693 335.213L283.532 335.13L279.108 286.702Z" fill="#148276"/>
<path fill-rule="evenodd" clip-rule="evenodd" d="M257.822 249.158L278.587 198.058C299.007 185.066 322.386 180.046 348.724 182.999C388.23 187.428 391.315 199.145 391.315 217.749C391.315 236.353 391.653 282.835 377.073 298.905C370.716 305.911 361.197 311.482 353.045 316.645C342.499 323.324 333.372 328.793 327.312 330.337C316.566 333.073 246.652 327.6 232.309 324.651C217.965 321.702 208.642 321.091 199.597 295.049C190.553 269.007 184.538 233.149 199.597 231.384C209.637 230.207 229.045 236.132 257.822 249.158Z" fill="#33B9AB"/>
<path fill-rule="evenodd" clip-rule="evenodd" d="M391.314 217.309V221.966L391.307 224.65L391.299 226.067L391.281 228.277L391.252 230.584L391.226 232.17C391.221 232.437 391.216 232.706 391.211 232.977L391.175 234.616C391.162 235.168 391.148 235.725 391.132 236.287L391.081 237.989C391.072 238.274 391.062 238.561 391.052 238.849L390.988 240.59C390.977 240.882 390.965 241.175 390.952 241.47L390.874 243.244C389.907 263.77 386.831 288.149 377.072 298.905C373.18 303.195 368.103 306.946 362.88 310.396L361.834 311.081C361.659 311.195 361.484 311.308 361.31 311.422L360.261 312.096L359.213 312.764L357.647 313.753L354.049 316.011L350.927 317.982L349.263 319.024L347.627 320.039L346.021 321.024L345.23 321.505L344.447 321.977L343.288 322.669C343.16 322.745 343.033 322.82 342.906 322.895L342.148 323.341L341.399 323.777L340.659 324.202L339.929 324.618C339.808 324.686 339.687 324.754 339.567 324.822L338.851 325.221L338.144 325.61L337.447 325.987L336.761 326.352C336.647 326.412 336.534 326.471 336.421 326.53L335.75 326.877L335.09 327.212L334.44 327.533C334.118 327.691 333.8 327.843 333.487 327.991L332.865 328.279C330.811 329.216 328.949 329.92 327.311 330.337C323.55 331.295 312.541 331.247 299.203 330.653L296.895 330.546C295.342 330.472 293.762 330.39 292.163 330.302L289.751 330.167L287.315 330.022L284.862 329.869L282.395 329.709C281.572 329.654 280.747 329.599 279.922 329.542L277.447 329.368L274.975 329.188C274.564 329.157 274.153 329.127 273.743 329.096L271.288 328.908L268.851 328.715C268.447 328.682 268.043 328.65 267.641 328.617L265.24 328.418L262.872 328.215L260.54 328.01L258.25 327.802L256.009 327.592C255.271 327.522 254.541 327.451 253.821 327.381L251.693 327.169C250.644 327.062 249.619 326.956 248.622 326.85L246.665 326.638C246.345 326.602 246.028 326.567 245.715 326.532L243.878 326.321C239.09 325.762 235.226 325.22 232.755 324.74L228.554 323.891L227.751 323.726L226.958 323.558L226.176 323.388L225.405 323.213C214.803 320.759 207.104 316.664 199.597 295.049C195.729 283.912 192.415 270.978 191.067 259.685C193.729 267.983 196.844 274.548 200.411 279.382C206.875 288.138 213.802 295.394 221.194 301.147L221.722 301.556L304.254 309.641C309.777 310.181 315.132 307.468 318.166 302.592C321.385 297.42 323.692 293.236 325.086 290.04L325.519 289.036C326.232 287.364 326.899 285.702 327.526 284.063L327.898 283.083C328.02 282.757 328.14 282.433 328.26 282.109L328.612 281.142C328.67 280.982 328.728 280.822 328.785 280.662L329.125 279.707C329.18 279.548 329.236 279.39 329.291 279.232L329.618 278.29C329.671 278.134 329.725 277.978 329.778 277.823L330.092 276.896L330.549 275.525L330.844 274.626L331.132 273.739L331.687 272.004L332.597 269.109L333.665 265.69L333.999 264.635L334.226 263.928L334.562 262.864L334.878 261.848L335.546 259.65L336.3 257.14L336.61 256.125L336.836 255.4L337.059 254.704L337.207 254.254L337.43 253.6L337.58 253.176L337.731 252.762L337.885 252.357C337.91 252.29 337.936 252.224 337.963 252.157L338.121 251.764C338.147 251.699 338.174 251.634 338.201 251.57L338.365 251.187L338.534 250.81C338.563 250.748 338.591 250.685 338.62 250.624L338.797 250.255L338.98 249.89C339.074 249.709 339.169 249.529 339.268 249.35L339.469 248.994C339.503 248.935 339.538 248.876 339.573 248.817L339.786 248.464C339.932 248.229 340.083 247.995 340.242 247.761L340.485 247.41L340.739 247.057C341.345 246.235 342.045 245.401 342.873 244.518L343.236 244.137C343.422 243.944 343.614 243.749 343.812 243.552C345.331 242.037 347.506 240.951 350.125 239.967L350.762 239.732C350.977 239.655 351.195 239.578 351.415 239.501L352.085 239.271L352.769 239.042L353.468 238.813L357.158 237.631L357.93 237.38L358.712 237.122L359.504 236.856L360.304 236.581L361.113 236.295C367.205 234.112 373.921 230.984 380.035 225C387.064 218.12 389.482 209.169 388.485 200.2C390.643 204.59 391.202 209.72 391.298 215.575L391.309 216.437L391.314 217.309Z" fill="#86D5CD"/>
<path fill-rule="evenodd" clip-rule="evenodd" d="M348.723 182.999L349.279 183.062L350.375 183.191C350.556 183.213 350.736 183.235 350.915 183.257L351.983 183.391L353.031 183.53C353.205 183.553 353.377 183.577 353.549 183.601L354.569 183.745C354.738 183.769 354.906 183.794 355.073 183.819L356.066 183.969C356.23 183.994 356.393 184.02 356.555 184.045L357.521 184.201L358.469 184.361L359.399 184.525L360.312 184.692L361.207 184.864L362.084 185.039L362.945 185.218C363.229 185.278 363.51 185.339 363.789 185.401L364.616 185.587C364.752 185.619 364.888 185.65 365.023 185.682L365.825 185.875L366.611 186.071L367.381 186.271C367.508 186.305 367.634 186.339 367.759 186.373L368.505 186.579L369.235 186.788C370.077 187.035 370.888 187.29 371.668 187.552L372.329 187.779C373.091 188.046 373.823 188.321 374.526 188.604L375.122 188.848C377.672 189.914 379.824 191.087 381.641 192.367L382.054 192.664C382.665 193.113 383.236 193.574 383.77 194.049C384.701 202.746 381.537 210.646 374.28 217.749C368.166 223.733 361.45 226.861 355.358 229.044L354.55 229.33L353.749 229.605L352.958 229.871L352.175 230.129L351.021 230.503L348.068 231.447L347.014 231.791L346.33 232.02L345.661 232.25C345.44 232.327 345.222 232.404 345.007 232.481L344.37 232.716C341.751 233.7 339.576 234.786 338.057 236.301C337.925 236.433 337.796 236.563 337.669 236.692L337.298 237.077C336.39 238.03 335.633 238.925 334.984 239.806L334.73 240.158L334.487 240.51C334.329 240.744 334.177 240.978 334.032 241.213L333.818 241.566C333.783 241.625 333.748 241.684 333.714 241.743L333.513 242.099C333.415 242.278 333.319 242.458 333.226 242.639L333.043 243.003L332.866 243.372C332.837 243.434 332.808 243.497 332.779 243.559L332.611 243.936L332.446 244.319C332.419 244.383 332.393 244.448 332.366 244.513L332.208 244.906L332.053 245.307L331.9 245.717L331.75 246.136L331.601 246.564L331.452 247.003L331.304 247.453L331.081 248.149L330.778 249.123L329.42 253.626L329.123 254.597L328.807 255.613L328.471 256.677L328.135 257.728L327.577 259.514L326.145 264.168L325.761 265.404L325.364 266.665L324.952 267.95L324.67 268.819L324.381 269.697L324.085 270.585L323.781 271.48L323.469 272.384L323.149 273.294L322.82 274.212L322.482 275.136C322.425 275.291 322.368 275.445 322.31 275.6L321.958 276.533C321.78 277 321.598 277.47 321.413 277.941L321.037 278.885L320.65 279.834L320.252 280.785C318.722 284.403 316.205 289.583 312.701 296.327C310.737 300.106 306.834 302.314 302.747 301.956L224.014 295.049C200.284 277.986 189.759 258.713 192.438 237.23C193.899 233.894 196.217 231.78 199.597 231.384C205.621 230.678 215.017 232.528 227.786 236.935L229.074 237.384C229.508 237.537 229.944 237.692 230.385 237.851L231.718 238.334L233.074 238.834C233.302 238.919 233.53 239.005 233.76 239.091L235.149 239.617C235.383 239.706 235.617 239.796 235.853 239.886L237.276 240.438C237.754 240.624 238.236 240.814 238.721 241.006L240.189 241.592C240.682 241.79 241.179 241.991 241.68 242.194L243.193 242.814C243.447 242.919 243.702 243.024 243.958 243.13L245.504 243.776L247.074 244.438L248.665 245.117C248.932 245.232 249.201 245.347 249.47 245.463L251.095 246.168L252.743 246.89C253.02 247.012 253.297 247.134 253.575 247.257L255.257 248.005L256.961 248.77C257.247 248.898 257.534 249.028 257.822 249.158L278.586 198.058C299.007 185.066 322.386 180.046 348.723 182.999Z" fill="#21998C"/>
<path fill-rule="evenodd" clip-rule="evenodd" d="M248.506 203.334L261.652 179.37C263.751 175.542 266.658 172.271 270.149 169.808C273.652 167.336 277.585 165.614 281.723 164.74L294 162.147H301.888L317.548 163.404C322.349 163.79 326.997 165.353 331.117 167.97C335.18 170.55 338.318 174.468 340.043 179.114L355.536 220.844C357.244 225.444 357.033 230.586 354.955 235.015C352.903 239.389 349.004 242.488 344.437 243.373L342.082 243.83L330.572 213.859L336.084 250.463C304.677 256.508 285.512 255.924 278.586 248.709L271.582 208.751L259.58 228.94L248.506 203.334Z" fill="#F4A950"/>
<path fill-rule="evenodd" clip-rule="evenodd" d="M324.728 198.36L330.603 214.068L336.084 250.463L334.214 250.818C303.916 256.482 285.373 255.779 278.586 248.709L275.347 230.23L280.303 230.909C290.574 232.317 301.016 230.787 310.528 226.482L310.839 226.341C319.77 222.299 325.38 212.869 324.921 202.669L324.728 198.36Z" fill="#EFA348"/>
<path fill-rule="evenodd" clip-rule="evenodd" d="M280.223 134.107C274.922 130.202 273.469 125.569 275.862 120.208C279.452 112.167 294.088 113.229 300.345 119.716C304.666 119.043 307.468 120.292 308.75 123.463C310.033 126.633 309.295 132.892 306.536 142.239L300.157 146.755L280.223 134.107Z" fill="#222323"/>
<path fill-rule="evenodd" clip-rule="evenodd" d="M303.079 141.921C302.561 141.932 302.135 141.501 302.127 140.959L302.07 137.205C300.575 135.943 299.849 134.278 299.893 132.209C299.933 130.3 299.092 128.49 297.634 127.347L297.338 127.115C287.482 130.761 281.236 131.16 278.599 128.31L279.501 149.154C279.611 151.685 280.539 154.098 282.135 155.998C283.698 157.86 285.967 158.906 288.339 158.858L288.971 158.845L289.148 166.284C289.254 170.739 292.791 174.249 297.049 174.123C297.198 174.119 297.348 174.11 297.497 174.096C302.007 173.687 305.37 169.551 305.031 164.83L303.774 147.308C307.332 145.496 309.091 143.283 309.052 140.668C309.012 138.053 307.315 137.219 303.96 138.166L304.002 140.922C304.01 141.463 303.597 141.911 303.079 141.921Z" fill="#FFBCAD"/>
<path d="M280.989 143.514C283.096 143.468 284.779 141.649 284.748 139.452C284.718 137.255 282.985 135.511 280.879 135.557C278.772 135.603 277.089 137.422 277.12 139.619C277.15 141.816 278.883 143.56 280.989 143.514Z" stroke="#222323" stroke-width="1.07283"/>
<path d="M285.529 139.684C285.944 141.205 285.33 142.517 283.688 143.621C281.226 145.276 282.774 146.947 286.103 146.07" stroke="#EB957D" stroke-width="0.750234"/>
<path d="M290.262 143.344C292.368 143.298 294.051 141.479 294.021 139.282C293.99 137.085 292.258 135.341 290.151 135.387C288.045 135.433 286.362 137.252 286.392 139.449C286.423 141.647 288.155 143.39 290.262 143.344Z" stroke="#222323" stroke-width="1.07283"/>
<path d="M284.706 139.466L286.314 139.437" stroke="#222323" stroke-width="1.07283"/>
<path d="M294.112 139.294L302.571 136.16" stroke="#222323" stroke-width="1.07283"/>
<path d="M277.61 134.234C279.488 133.156 281.823 133.106 284.617 134.084" stroke="#222323" stroke-width="2.36024"/>
<path d="M287.548 134.11C289.889 133.194 292.155 133.438 294.348 134.841" stroke="#222323" stroke-width="2.36024"/>
<path d="M281.213 141.006C281.68 140.996 282.051 140.395 282.041 139.663C282.031 138.932 281.643 138.347 281.176 138.357C280.708 138.368 280.337 138.969 280.348 139.7C280.358 140.432 280.745 141.016 281.213 141.006Z" fill="#222323"/>
<path d="M289.642 140.852C290.11 140.841 290.48 140.24 290.47 139.509C290.46 138.778 290.073 138.193 289.605 138.203C289.138 138.213 288.767 138.815 288.777 139.546C288.787 140.277 289.174 140.862 289.642 140.852Z" fill="#222323"/>
<path fill-rule="evenodd" clip-rule="evenodd" d="M282.746 149.074L289.862 148.577C289.342 150.716 288.261 151.885 286.619 152.086C284.977 152.287 283.686 151.283 282.746 149.074Z" fill="white"/>
<path opacity="0.4" fill-rule="evenodd" clip-rule="evenodd" d="M298.881 152.946L289.257 167.72C289.179 167.335 289.129 166.94 289.108 166.537L289.098 166.233L288.986 158.856C292.83 158.119 296.128 156.149 298.881 152.946Z" fill="#CC5D37"/>
<path d="M304.75 139.299C306.064 138.925 306.987 139.133 307.517 139.923C308.047 140.713 307.845 141.769 306.91 143.09" stroke="#EB957D" stroke-width="0.750234"/>
<path d="M304.749 139.08L304.746 141.025" stroke="#EB957D" stroke-width="0.750234"/>
<path fill-rule="evenodd" clip-rule="evenodd" d="M299.86 237.39C297.73 238.269 295.444 238.562 293.002 238.269C289.339 237.829 286.5 236.301 282.429 236.301C278.358 236.301 275.815 237.838 275.06 241.145C274.556 243.35 277.769 245.285 284.698 246.952L293.002 249.632L301.041 247.571L299.86 237.39Z" fill="#FFBCAD"/>
<path d="M324.728 198.36L331.98 217.749" stroke="#D18E3E" stroke-width="0.750234"/>
<path fill-rule="evenodd" clip-rule="evenodd" d="M341.393 223.547L298.02 235.99C297.435 240.433 298.323 244.823 300.683 249.158L343.13 243.634L341.393 223.547Z" fill="#F4A950"/>
<path fill-rule="evenodd" clip-rule="evenodd" d="M262.798 232.903L250.809 187.428H185.231L197.326 232.903H262.798Z" fill="#A5ADC5"/>
<path fill-rule="evenodd" clip-rule="evenodd" d="M261.647 232.903L249.658 187.428H184.08L196.174 232.903H261.647Z" fill="#DCE5FF"/>
<path d="M224.044 215.76C226.057 215.272 227.225 212.767 226.653 210.166C226.081 207.565 223.986 205.852 221.973 206.34C219.96 206.828 218.792 209.332 219.364 211.933C219.936 214.534 222.031 216.248 224.044 215.76Z" fill="white"/>
<path fill-rule="evenodd" clip-rule="evenodd" d="M197.383 236.301L224.014 251.818H294.075V248.494L262.798 232.903H199.687L197.383 236.301Z" fill="#A5ADC5"/>
<path fill-rule="evenodd" clip-rule="evenodd" d="M261.647 234.602L262.798 236.353L294.066 251.817L224.014 251.818L197.383 236.301L197.66 235.893L207.54 234.602H261.647Z" fill="#B4BACE"/>
<path fill-rule="evenodd" clip-rule="evenodd" d="M197.383 232.903V236.301H262.798V232.903H197.383Z" fill="#A5ADC5"/>
<path d="M250.358 187.729H184.054L196.174 232.903H207.652" stroke="#A5ADC5" stroke-width="0.750234"/>
<path d="M269.475 195.166L272.449 213.811" stroke="#D18E3E" stroke-width="0.750234"/>
<path fill-rule="evenodd" clip-rule="evenodd" d="M214.656 272.815C261.498 299.234 295.162 306.803 315.648 295.522L243.779 257.042L214.656 272.815Z" fill="black"/>
<path fill-rule="evenodd" clip-rule="evenodd" d="M179.211 321.957L162.253 311.447L149.012 330.01L144.96 335.384L165.66 342.589L166.963 338.35L179.211 321.957Z" fill="#FFBCAD"/>
<path fill-rule="evenodd" clip-rule="evenodd" d="M149.297 329.752C137.811 337.209 129.37 341.074 123.974 341.348C118.578 341.623 115.491 343.813 114.712 347.918C120.987 352.557 127.521 355.284 134.314 356.1C144.505 357.324 150.407 354.658 152.911 354.454L153.037 357.386L163.527 358.146L166.956 338.499C163.374 341.088 159.939 340.488 156.652 336.701C153.364 332.914 150.912 330.598 149.297 329.752Z" fill="black"/>
<path fill-rule="evenodd" clip-rule="evenodd" d="M252.792 307.41L261.436 312.444L270.802 298.905L259.51 295.049L252.792 307.41Z" fill="#FFBCAD"/>
<path fill-rule="evenodd" clip-rule="evenodd" d="M261.436 312.444C261.743 309.348 262.637 306.605 264.118 304.217C265.6 301.828 267.828 300.058 270.802 298.905C276.196 301.857 282.211 304.114 288.848 305.674C298.804 308.015 304.558 310.431 304.558 316.619C304.558 322.807 293.445 327.8 285.247 325.293C277.049 322.786 272.78 318.428 269.656 316.619C267.574 315.413 264.834 314.022 261.436 312.444Z" fill="black"/>
<path fill-rule="evenodd" clip-rule="evenodd" d="M233.514 247.571H183.397C178.674 247.571 174.021 248.777 169.84 251.084C165.978 253.215 163.698 257.558 164.042 262.124L164.141 263.432C164.55 268.859 167.81 273.591 172.59 275.698L253.105 311.191C259.567 305.96 262.797 299.351 262.797 291.363L216.788 264.16L233.514 247.571Z" fill="black"/>
<path d="M195.9 285.974L253.105 311.192C259.567 305.96 262.797 299.351 262.797 291.363L216.788 264.16" stroke="#545454" stroke-width="0.750234"/>
<path fill-rule="evenodd" clip-rule="evenodd" d="M287.267 253.222L230.957 235.515C225.26 233.724 219.238 233.391 213.393 234.545C207.71 235.667 202.706 239.169 199.533 244.245L152.105 320.109C155.747 328.826 163.06 333.788 174.041 334.996L222.064 269.315L282.091 293.709C290.67 297.195 299.944 298.366 309.065 297.114L309.638 297.036C318.115 295.872 325.712 290.955 330.511 283.526C335.374 275.999 337.453 266.868 336.359 257.845L335.465 250.471C323.125 252.869 313.867 254.244 307.691 254.597C301.516 254.95 294.708 254.491 287.267 253.222Z" fill="#24245D"/>
<path d="M282.429 251.818L319.654 262.267" stroke="black" stroke-width="0.750234"/>
<path d="M297.845 236.301L335.04 225.296C337.885 224.99 340.582 225.385 343.13 226.479" stroke="#D18E3E" stroke-width="0.750234"/>
<path opacity="0.1" d="M166.073 333.936L220.371 260.36C252.626 272.85 277.191 280.694 294.066 283.892C319.378 288.691 323.762 265.985 319.653 254.597" stroke="white" stroke-width="0.750234"/>
<path fill-rule="evenodd" clip-rule="evenodd" d="M380.618 209.348C374.054 219.035 366.586 225.273 358.216 228.064C345.661 232.25 335.606 233.378 331.98 245.21C328.354 257.043 319.475 283.877 313.656 295.049C307.837 306.222 288.183 299.751 271.49 298.905L282.429 302.542L299.721 306.831L324.315 291.173L336.084 300.585L355.028 264.695L378.204 240.891L387.287 217.749L380.618 209.348Z" fill="#33B9AB"/>
<path fill-rule="evenodd" clip-rule="evenodd" d="M391.314 217.309V221.966L391.307 224.65L391.3 226.067L391.281 228.277L391.252 230.584L391.226 232.17C391.222 232.437 391.216 232.706 391.211 232.977L391.175 234.616C391.162 235.168 391.148 235.725 391.132 236.287L391.081 237.989C391.072 238.274 391.062 238.561 391.053 238.849L390.988 240.59C390.977 240.882 390.965 241.175 390.953 241.47L390.874 243.244C389.907 263.77 386.831 288.149 377.073 298.905C373.181 303.195 368.103 306.946 362.88 310.396L361.834 311.081C361.659 311.195 361.485 311.308 361.31 311.422L360.261 312.096L359.213 312.764L357.647 313.753L354.049 316.011L350.927 317.982L349.263 319.024L347.627 320.039L346.021 321.024L345.23 321.505L344.447 321.977L343.288 322.669C343.16 322.745 343.033 322.82 342.906 322.895L342.148 323.341L341.399 323.777L340.659 324.202L339.929 324.618C339.808 324.686 339.687 324.754 339.567 324.822L338.851 325.221L338.144 325.61L337.447 325.987L336.761 326.352C336.647 326.412 336.534 326.471 336.422 326.53L335.75 326.877L335.09 327.212L334.44 327.533C334.118 327.691 333.8 327.843 333.487 327.991L332.865 328.279C330.812 329.216 328.95 329.92 327.312 330.337C323.551 331.295 312.541 331.247 299.204 330.653L296.895 330.546C295.342 330.472 293.763 330.39 292.164 330.302L289.752 330.167L287.316 330.022L284.862 329.869L282.395 329.709C281.572 329.654 280.747 329.599 279.922 329.542L277.447 329.368L274.976 329.188C274.564 329.157 274.154 329.127 273.743 329.096L271.288 328.908L268.851 328.715C268.447 328.682 268.043 328.65 267.641 328.617L265.241 328.418L262.872 328.215L260.54 328.01L258.251 327.802L256.009 327.592C255.271 327.522 254.541 327.451 253.822 327.381L251.693 327.169C250.644 327.062 249.62 326.956 248.622 326.85L246.665 326.638C246.345 326.602 246.029 326.567 245.716 326.532L243.878 326.321C239.09 325.762 235.226 325.22 232.755 324.74L228.554 323.891L227.751 323.726L226.959 323.558L226.177 323.388L225.405 323.213C218.763 321.676 243.81 322.855 300.546 326.75V326.75C307.22 327.208 313.373 322.96 315.618 316.344C320.291 302.566 323.447 293.798 325.086 290.04L325.52 289.036C326.232 287.364 326.899 285.702 327.526 284.063L327.898 283.083C328.02 282.757 328.141 282.433 328.26 282.109L328.612 281.142C328.671 280.982 328.728 280.822 328.785 280.662L329.125 279.707C329.181 279.548 329.236 279.39 329.291 279.232L329.618 278.29C329.672 278.134 329.725 277.978 329.778 277.823L330.092 276.896L330.549 275.525L330.845 274.626L331.132 273.739L331.687 272.004L332.597 269.109L333.665 265.69L334 264.635L334.226 263.928L334.562 262.864L334.878 261.848L335.547 259.65L336.3 257.14L336.61 256.125L336.836 255.4L337.059 254.704L337.207 254.254L337.43 253.6L337.58 253.176L337.731 252.762L337.885 252.357C337.911 252.29 337.937 252.224 337.963 252.157L338.121 251.764C338.148 251.699 338.175 251.634 338.201 251.57L338.366 251.187L338.534 250.81C338.563 250.748 338.592 250.685 338.621 250.624L338.798 250.255L338.981 249.89C339.074 249.709 339.17 249.529 339.268 249.35L339.469 248.994C339.504 248.935 339.538 248.876 339.573 248.817L339.787 248.464C339.932 248.229 340.084 247.995 340.242 247.761L340.485 247.41L340.739 247.057C341.345 246.235 342.045 245.401 342.874 244.518L343.237 244.137C343.422 243.944 343.614 243.749 343.812 243.552C345.331 242.037 347.506 240.951 350.125 239.967L350.762 239.732C350.977 239.655 351.195 239.578 351.416 239.501L352.085 239.271L352.769 239.042L353.468 238.813L357.158 237.631L357.93 237.38L358.713 237.122L359.504 236.856L360.305 236.581L361.113 236.295C367.205 234.112 373.921 230.984 380.035 225C387.064 218.12 389.482 209.169 388.485 200.2C390.643 204.59 391.202 209.72 391.298 215.575L391.309 216.437L391.314 217.309Z" fill="#86D5CD"/>
<path fill-rule="evenodd" clip-rule="evenodd" d="M107.572 324.874L104.775 348.32C103.917 355.508 98.0976 360.901 91.1987 360.901H85.8275C78.9047 360.901 73.0727 355.472 72.2437 348.255L69.6 325.24L107.572 324.874Z" fill="#DCB17E"/>
<path d="M106.484 336.075C95.4093 339.366 83.6028 339.366 71.0645 336.075" stroke="white" stroke-width="1.48646"/>
<path d="M88.3693 327.438C77.0357 327.438 67.848 326.454 67.848 325.24C67.848 324.027 77.0357 323.043 88.3693 323.043C99.7029 323.043 108.891 324.027 108.891 325.24C108.891 326.454 99.7029 327.438 88.3693 327.438Z" fill="#69471D" stroke="#24245D" stroke-width="1.48646"/>
<path fill-rule="evenodd" clip-rule="evenodd" d="M93.1934 190.565C90.3087 191.734 89.1216 193.875 89.6322 196.987C90.398 201.654 93.2031 202.67 95.8857 202.67C97.6741 202.67 96.7766 198.635 93.1934 190.565Z" fill="#21998C"/>
<path fill-rule="evenodd" clip-rule="evenodd" d="M104.946 215.411C112.034 215.836 120.988 211.806 121.923 204.044C122.858 196.282 119.09 187.088 110.58 188.931C102.069 190.775 97.8699 188.3 92.7812 190.766C94.4482 194.031 94.8692 197.791 94.0443 202.045C92.807 208.426 97.858 214.986 104.946 215.411Z" fill="#86D5CD"/>
<path fill-rule="evenodd" clip-rule="evenodd" d="M108.242 256.013C105.744 253.537 106.008 246.253 113.761 244.08C118.93 242.631 124.826 244.62 131.448 250.046C128.008 250.183 124.879 250.936 122.063 252.305C117.838 254.357 110.741 258.488 108.242 256.013Z" fill="#21998C"/>
<path fill-rule="evenodd" clip-rule="evenodd" d="M123.559 245.111C131.845 244.436 137.767 244.436 141.324 245.111C146.659 246.122 156.027 258.132 149.402 258.132C144.985 258.132 136.37 253.791 123.559 245.111Z" fill="#86D5CD"/>
<path fill-rule="evenodd" clip-rule="evenodd" d="M78.5667 226.871C88.0433 219.497 90.4138 213.277 85.6784 208.21C78.5752 200.609 63.2395 189.348 46.5337 193.416C50.8999 197.935 53.5392 202.132 54.4515 206.007C55.82 211.82 66.1324 215.129 70.8974 218.569C74.0741 220.863 76.6305 223.63 78.5667 226.871Z" fill="#86D5CD"/>
<path d="M46.5336 193.416C65.0537 196.715 75.7313 207.867 78.5665 226.871C81.4017 245.876 83.7754 279.368 85.6877 327.348" stroke="#24245D" stroke-width="1.01282"/>
<path d="M103.426 189.524C106.717 190.19 108.048 193.396 107.422 199.144C106.481 207.766 85.1496 284.94 91.147 327.348" stroke="#24245D" stroke-width="1.01282"/>
<path fill-rule="evenodd" clip-rule="evenodd" d="M96.7783 241.226C100.503 229.393 105.648 223.477 112.214 223.477C122.062 223.477 133.416 224.363 140.157 229.706C146.898 235.049 165.488 241.226 158.417 241.226C151.346 241.226 137.327 237.085 130.259 237.085C125.548 237.085 114.387 238.465 96.7783 241.226Z" fill="#86D5CD"/>
<path d="M131.448 225.013C115.729 226.916 104.172 232.321 96.7785 241.226C89.3848 250.131 85.688 278.838 85.688 327.348" stroke="#24245D" stroke-width="1.01282"/>
<path fill-rule="evenodd" clip-rule="evenodd" d="M66.1106 243.622C62.3628 235.386 54.4697 231.268 42.4313 231.268C24.3736 231.268 10.7112 228.249 0.0149841 236.427L9.09352 235.786C16.8164 235.241 24.5737 235.681 32.1957 237.096C34.5653 237.536 36.9693 237.891 39.4078 238.162C48.0468 239.118 43.4463 240.932 35.1209 240.025C29.5706 239.421 34.7578 242.812 50.6826 250.201L66.1106 243.622Z" fill="#86D5CD"/>
<path fill-rule="evenodd" clip-rule="evenodd" d="M49.8876 239.819C47.8015 241.198 47.2322 245.857 47.3897 248.657L48.9942 249.413L50.6826 250.201L66.1106 243.622C65.3373 241.923 64.3876 240.399 63.2614 239.05C57.9731 239.403 53.643 237.337 49.8876 239.819Z" fill="#21998C"/>
<path fill-rule="evenodd" clip-rule="evenodd" d="M0.0152416 236.427L9.0353 235.791C14.6842 235.392 20.3515 235.518 25.9712 236.164L10.9693 231.604C6.99845 232.406 3.36168 233.869 0.0152416 236.427Z" fill="#21998C"/>
<path d="M10.436 231.58C17.6416 233.317 23.1977 234.844 27.1045 236.159" stroke="#24245D" stroke-width="1.01282"/>
<path d="M38.7479 231.58C68.4002 251.727 84.0468 283.65 85.6877 327.348" stroke="#24245D" stroke-width="1.01282"/>
<path fill-rule="evenodd" clip-rule="evenodd" d="M77.1649 258.436C80.7372 257.949 84.67 255.929 82.6993 246.622C80.7287 237.315 72.7744 238.809 64.8303 240.017C56.8861 241.226 55.2082 237.535 50.871 241.226C46.5338 244.917 48.7293 263.077 57.4201 261.73C63.214 260.831 67.4998 257.689 70.2775 252.305C72.4876 256.717 74.7834 258.76 77.1649 258.436Z" fill="#21998C"/>
<path fill-rule="evenodd" clip-rule="evenodd" d="M67.4283 239.625L65.7583 239.875L64.8301 240.017C62.8079 240.325 61.1918 240.315 59.8344 240.19L59.2681 240.13L58.7309 240.06L57.9741 239.942L56.3916 239.674L55.9751 239.615C54.2643 239.396 52.8423 239.548 50.8708 241.226C46.5336 244.917 48.7291 263.077 57.4199 261.73C63.2138 260.831 67.4996 257.689 70.2773 252.305L70.5004 251.845L70.7325 251.375L71.1942 250.467C74.2611 244.551 77.1061 241.418 79.7292 241.068C77.2148 238.96 73.5585 238.892 69.5835 239.343L68.7272 239.447L67.8629 239.563C67.7183 239.583 67.5734 239.604 67.4283 239.625Z" fill="#86D5CD"/>
<path d="M77.1152 241.906C74.5485 244.751 72.2691 248.217 70.2772 252.305" stroke="#24245D" stroke-width="1.01282"/>
<path d="M124.433 246.122C111.396 250.335 102.861 260.06 98.8292 275.298C94.7972 290.536 92.2366 307.886 91.1474 327.348" stroke="#24245D" stroke-width="1.01282"/>
<path d="M73.6963 246.122C77.2842 249.328 79.4433 255.435 80.1735 264.445C80.9037 273.455 82.7418 294.422 85.6877 327.348" stroke="#24245D" stroke-width="1.01282"/>
<path fill-rule="evenodd" clip-rule="evenodd" d="M92.1091 274.587C85.9535 268.929 84.225 264.37 86.9235 260.909C91.1471 255.492 112.248 259.187 113.167 273.787C113.779 283.52 110.219 282.375 102.486 270.351C100.124 270.839 98.2211 271.46 96.7784 272.212C95.6342 272.809 94.5919 273.586 93.6515 274.544L93.6516 274.544C93.2262 274.977 92.5557 274.996 92.1089 274.587L92.1091 274.587Z" fill="#21998C"/>
<path fill-rule="evenodd" clip-rule="evenodd" d="M112.55 270.399C108.885 258.64 90.7994 255.939 86.9239 260.909C84.2261 264.369 85.9528 268.926 92.1041 274.582C92.5147 274.96 93.1163 274.976 93.5429 274.641L93.6547 274.541C94.5944 273.585 95.6357 272.808 96.7788 272.212C98.2215 271.46 100.124 270.839 102.486 270.351L102.738 270.741C105.976 269.77 109.042 269.607 111.937 270.25L112.55 270.399Z" fill="#86D5CD"/>
<path d="M111.906 294.312C100.135 298.743 93.2153 308.383 91.1474 323.232" stroke="#24245D" stroke-width="1.01282"/>
<path d="M109.646 270.06C106.215 269.935 103.604 270.074 101.815 270.478" stroke="#24245D" stroke-width="1.01282"/>
<path fill-rule="evenodd" clip-rule="evenodd" d="M105.73 297.164C109.658 291.511 115.504 289.12 123.268 289.991C134.913 291.299 146.992 302.342 135.13 301.948C123.268 301.554 121.982 296.791 116.295 296.006C112.504 295.483 108.982 295.869 105.73 297.164Z" fill="#86D5CD"/>
<path d="M85.6877 324.874C84.7924 318.21 82.4796 314.878 78.7494 314.878" stroke="#24245D" stroke-width="1.01282"/>
<path fill-rule="evenodd" clip-rule="evenodd" d="M79.6921 314.686C77.1088 312.614 74.1995 311.749 70.964 312.092C66.1108 312.606 63.023 319.06 59.5079 319.512C63.1928 321.112 66.6857 321.618 69.9866 321.032C72.2529 320.63 75.4881 318.514 79.6921 314.686Z" fill="#21998C"/>
<path fill-rule="evenodd" clip-rule="evenodd" d="M435.919 180.668C436.682 180.668 437.306 181.292 437.355 182.079L437.358 182.179L437.358 194.776L443.17 194.776L462.305 301.711C461.695 303.003 461.07 304.282 460.431 305.547C460.186 305.347 460.002 305.065 459.92 304.731L459.9 304.634L440.783 197.797L437.358 197.797L437.359 339.569C436.41 340.667 435.45 341.749 434.481 342.817L434.48 197.797L431.785 197.797L405.393 353.787C405.259 354.576 404.566 355.112 403.818 355.025L403.725 355.01C402.974 354.87 402.463 354.142 402.546 353.357L402.56 353.259L429.374 194.776L434.48 194.776L434.481 182.179C434.481 181.345 435.125 180.668 435.919 180.668Z" fill="#F8CB96"/>
<path fill-rule="evenodd" clip-rule="evenodd" d="M419.888 250.843L422.737 251.275L405.393 353.787C405.259 354.576 404.566 355.112 403.818 355.024L403.725 355.01C402.974 354.87 402.463 354.142 402.546 353.357L402.56 353.259L419.888 250.843ZM434.48 286.06H437.358L437.359 339.569C436.41 340.666 435.45 341.749 434.481 342.817L434.48 286.06ZM460.402 291.075L462.305 301.711C461.695 303.003 461.07 304.282 460.431 305.547C460.186 305.347 460.002 305.065 459.92 304.73L459.9 304.633L457.589 291.721L460.402 291.075Z" fill="#DCB17E"/>
<path opacity="0.401971" fill-rule="evenodd" clip-rule="evenodd" d="M463.092 179.965L474.739 265.264C472.444 275.611 469.237 285.625 465.276 295.051L383.929 295.049L408.746 180.668L463.092 179.965Z" fill="url(#paint0_linear_517_4)"/>
<path fill-rule="evenodd" clip-rule="evenodd" d="M418.831 125.397H453.007C454.726 125.397 456.183 126.725 456.425 128.511L463.484 180.561C454.524 183.549 445.336 185.043 435.919 185.043C426.502 185.043 417.314 183.549 408.354 180.561L415.412 128.511C415.655 126.725 417.112 125.397 418.831 125.397Z" fill="#F4A950"/>
<path fill-rule="evenodd" clip-rule="evenodd" d="M453.007 125.397C454.726 125.397 456.183 126.725 456.425 128.511L463.092 177.669L462.812 177.762C454.065 180.602 445.1 182.022 435.919 182.022C426.639 182.022 417.582 180.572 408.746 177.67L415.412 128.511C415.655 126.725 417.112 125.397 418.831 125.397H453.007Z" fill="#F8CB96"/>
<path opacity="0.267322" fill-rule="evenodd" clip-rule="evenodd" d="M453.007 125.397C454.726 125.397 456.183 126.724 456.425 128.511L463.091 177.669L462.812 177.762C454.271 180.535 445.523 181.954 436.568 182.02C447.888 175.126 450.298 161.372 450.04 148.671L450.02 147.844L449.992 147.021L449.957 146.201C449.945 145.929 449.931 145.657 449.916 145.386C449.335 134.65 441.636 127.987 426.82 125.396L453.007 125.397Z" fill="#F4A950"/>
<path opacity="0.3" d="M435.919 125.397V185.043M422.621 125.397L415.964 182.179L422.621 125.397ZM449.917 125.397L456.574 182.179L449.917 125.397ZM428.875 125.397L426.304 183.968L428.875 125.397ZM442.992 125.397L445.563 183.968L442.992 125.397Z" stroke="white" stroke-width="0.750234"/>
<defs>
<linearGradient id="paint0_linear_517_4" x1="436.556" y1="179.965" x2="436.556" y2="286.912" gradientUnits="userSpaceOnUse">
<stop stop-color="#F6BB74"/>
<stop offset="1" stop-color="white" stop-opacity="0"/>
</linearGradient>
</defs>
</svg>
